<?xml version="1.0" encoding="UTF-8" standalone="no"?>
<!-- Created with Inkscape (http://www.inkscape.org/) -->

<svg
   width="392.87875mm"
   height="67.955246mm"
   viewBox="0 0 392.87875 67.955246"
   version="1.1"
   id="svg5"
   inkscape:version="1.1.2 (0a00cf5339, 2022-02-04, custom)"
   sodipodi:docname="fcalLogo.svg"
   inkscape:export-filename="fcalLogo.png"
   inkscape:export-xdpi="568.92871"
   inkscape:export-ydpi="568.92871"
   xmlns:inkscape="http://www.inkscape.org/namespaces/inkscape"
   xmlns:sodipodi="http://sodipodi.sourceforge.net/DTD/sodipodi-0.dtd"
   xmlns="http://www.w3.org/2000/svg"
   xmlns:svg="http://www.w3.org/2000/svg">
  <sodipodi:namedview
     id="namedview7"
     pagecolor="#505050"
     bordercolor="#eeeeee"
     borderopacity="1"
     inkscape:pageshadow="0"
     inkscape:pageopacity="0"
     inkscape:pagecheckerboard="0"
     inkscape:document-units="px"
     showgrid="false"
     inkscape:zoom="0.6476501"
     inkscape:cx="779.74203"
     inkscape:cy="202.26971"
     inkscape:window-width="1920"
     inkscape:window-height="987"
     inkscape:window-x="0"
     inkscape:window-y="0"
     inkscape:window-maximized="1"
     inkscape:current-layer="layer2"
     fit-margin-top="0"
     fit-margin-left="0"
     fit-margin-right="0"
     fit-margin-bottom="0" />
  <defs
     id="defs2">
    <rect
       x="4041.4207"
       y="1820.0367"
       width="1002.7125"
       height="225.34828"
       id="rect44849" />
  </defs>
  <g
     inkscape:label="Texto"
     inkscape:groupmode="layer"
     id="layer1"
     transform="translate(-688.71703,-423.40613)">
    <text
       xml:space="preserve"
       transform="scale(0.26458334)"
       id="text44847"
       style="font-size:53.3333px;line-height:0.85;font-family:Ronnia-Regular;-inkscape-font-specification:Ronnia-Regular;white-space:pre;shape-inside:url(#rect44849)" />
  </g>
  <g
     inkscape:groupmode="layer"
     id="layer2"
     inkscape:label="Logo"
     transform="translate(-688.71703,-423.40613)">
    <g
       id="g56415">
      <text
         xml:space="preserve"
         style="font-size:32.1566px;line-height:1.15;font-family:Ronnia-Regular;-inkscape-font-specification:Ronnia-Regular;stroke-width:0.602936"
         x="799.19672"
         y="453.83463"
         id="text13905"><tspan
           sodipodi:role="line"
           id="tspan13903"
           style="stroke-width:0.602936"
           x="799.19672"
           y="453.83463">Facultad de Ciencias</tspan><tspan
           sodipodi:role="line"
           style="stroke-width:0.602936"
           x="799.19672"
           y="490.94333"
           id="tspan13907">de la <tspan
   style="font-style:normal;font-variant:normal;font-weight:normal;font-stretch:normal;font-family:Ronnia-Bold;-inkscape-font-specification:Ronnia-Bold;stroke-width:0.602936"
   id="tspan17603">Alimentación</tspan></tspan></text>
      <g
         id="g56399">
        <text
           xml:space="preserve"
           style="font-size:37.7278px;line-height:1.25;font-family:Ronnia-Regular;-inkscape-font-specification:Ronnia-Regular;stroke-width:0.523997"
           x="686.67963"
           y="489.66553"
           id="text23933"><tspan
             sodipodi:role="line"
             id="tspan23931"
             style="font-size:37.7278px;stroke-width:0.523997"
             x="686.67963"
             y="489.66553">UNER</tspan></text>
        <g
           id="g56390">
          <path
             style="fill:#61cce7;fill-opacity:1;stroke-width:0.354014"
             d="m 695.13189,442.80276 c -1.04726,-0.28167 -2.87928,-1.02789 -4.07116,-1.65827 l -2.16705,-1.14615 -0.1054,-2.21258 c -0.058,-1.21692 -0.007,-2.21259 0.11397,-2.21259 0.12065,0 0.88496,0.38539 1.69846,0.85642 2.65258,1.53587 6.4567,2.47373 9.97542,2.45931 3.63778,-0.0149 5.41237,-0.53072 11.66261,-3.38992 5.6913,-2.60352 7.45768,-3.15284 10.81725,-3.36402 3.93178,-0.24715 6.14901,0.333 12.35743,3.2334 6.20826,2.90032 8.33465,3.53181 11.8925,3.53181 3.56089,0 5.74884,-0.64609 11.89672,-3.51307 5.66652,-2.6425 8.15087,-3.35406 11.71041,-3.35406 3.14524,0 6.00964,0.69043 9.22755,2.2242 l 2.3895,1.13893 9e-5,2.21258 c 4e-5,1.21692 -0.0841,2.21259 -0.18702,2.21259 -0.10291,0 -1.13729,-0.47966 -2.29864,-1.06591 -2.94781,-1.48805 -5.70343,-2.14422 -9.08913,-2.16432 -3.61463,-0.0215 -5.7445,0.5801 -11.43601,3.22999 -6.56736,3.05768 -7.6774,3.36336 -12.21347,3.36336 -4.516,0 -5.74205,-0.33404 -11.83334,-3.22409 -5.51961,-2.61881 -8.06636,-3.35968 -11.53156,-3.35463 -3.55469,0.005 -5.50472,0.58238 -11.53003,3.4128 -2.64207,1.24112 -5.74219,2.50102 -6.88914,2.79976 -2.59742,0.67655 -7.84591,0.66869 -10.38996,-0.0156 z"
             id="path51634" />
          <path
             style="fill:#087ccd;fill-opacity:1;stroke:none;stroke-width:0.354014;stroke-opacity:1"
             d="m 697.91315,451.87344 c -2.49996,-0.33145 -5.37826,-1.26989 -7.51455,-2.45003 l -1.68121,-0.92874 -3.6e-4,-2.21259 c -2e-4,-1.21692 0.13888,-2.21258 0.30907,-2.21258 0.17018,0 1.00654,0.38523 1.85857,0.85608 4.85549,2.68321 11.4688,3.07795 16.59472,0.99051 1.46031,-0.59468 4.01595,-1.71474 5.6792,-2.48903 4.72997,-2.2019 7.37678,-2.8977 11.02282,-2.8977 3.71011,0 6.57214,0.82841 11.61907,3.36313 8.83267,4.43604 14.0341,4.51809 22.30703,0.35191 5.48765,-2.76353 7.69201,-3.44844 11.6827,-3.62986 4.27982,-0.19458 6.97106,0.33384 10.52748,2.06703 l 2.21258,1.07828 v 2.42341 2.42341 l -2.38959,-1.20542 c -3.11338,-1.57051 -5.97609,-2.26971 -9.29286,-2.26971 -3.60976,0 -5.80223,0.62916 -11.57686,3.32214 -6.157,2.87131 -8.35067,3.50916 -12.01058,3.49233 -3.64521,-0.0168 -5.77345,-0.64177 -11.84696,-3.47915 -6.16434,-2.8798 -8.39179,-3.46595 -12.34404,-3.24829 -3.48445,0.19189 -4.90823,0.64154 -10.98781,3.47009 -6.41221,2.98331 -9.85356,3.75686 -14.16842,3.18478 z m -0.4299,-13.10451 c -2.43428,-0.44074 -5.1612,-1.38146 -7.08465,-2.44402 l -1.68121,-0.92874 -3.6e-4,-4.36617 c -2e-4,-2.40139 0.11912,-4.31192 0.26515,-4.24562 0.14603,0.0663 1.25954,0.63861 2.47446,1.27181 4.05972,2.11585 9.14573,2.76055 13.28085,1.68349 1.10497,-0.28781 4.30711,-1.55273 7.11587,-2.81094 6.74076,-3.0196 8.56799,-3.54431 12.26467,-3.52194 3.82243,0.0231 5.01559,0.36865 11.51294,3.33398 6.02563,2.75004 8.58506,3.52219 11.67495,3.52219 3.01194,0 5.70145,-0.77424 10.62041,-3.05736 7.04835,-3.27147 8.6859,-3.75805 12.74449,-3.78689 3.92272,-0.0279 6.36007,0.53823 9.80537,2.27741 l 2.05408,1.0369 v 4.24306 c 0,2.33369 -0.0999,4.24307 -0.22207,4.24307 -0.12213,0 -1.19745,-0.47448 -2.38959,-1.05439 -4.37082,-2.12618 -9.41388,-2.70435 -13.7616,-1.57774 -1.17586,0.30469 -4.30532,1.56472 -6.95437,2.80007 -6.14788,2.86698 -8.33583,3.51307 -11.89672,3.51307 -3.55785,0 -5.68424,-0.63149 -11.8925,-3.53181 -6.20842,-2.9004 -8.42565,-3.48055 -12.35743,-3.2334 -3.35957,0.21118 -5.12595,0.7605 -10.81725,3.36402 -6.93488,3.17239 -10.69364,4.00537 -14.75549,3.26995 z"
             id="path51632" />
        </g>
      </g>
    </g>
  </g>
</svg>
