<?xml version="1.0" encoding="iso-8859-1"?>
<!-- Generator: Adobe Illustrator 18.0.0, SVG Export Plug-In . SVG Version: 6.00 Build 0)  -->
<!DOCTYPE svg PUBLIC "-//W3C//DTD SVG 1.1//EN" "http://www.w3.org/Graphics/SVG/1.1/DTD/svg11.dtd">
<svg version="1.1" id="Capa_1" xmlns="http://www.w3.org/2000/svg" xmlns:xlink="http://www.w3.org/1999/xlink" x="0px" y="0px"
	 viewBox="0 0 428.227 428.227" style="enable-background:new 0 0 428.227 428.227;" xml:space="preserve">
<g>
	<path style="fill:#808080;" d="M219.762,98.527h-25.731v100.899c0,7.106,5.76,12.866,12.866,12.866h0c7.106,0,10.422,0,10.422,0
		L219.762,98.527z"/>
	<path style="fill:#999999;" d="M230.185,98.527h-25.731v100.899c0,7.106,5.76,12.866,12.866,12.866h0
		c7.106,0,12.866-5.76,12.866-12.866V98.527z"/>
	<path style="fill:#CCCCCC;" d="M208.335,227.125c-15.298,0-27.7-12.402-27.7-27.7s12.402-27.7,27.7-27.7h43.549v55.399H208.335z"/>
	<rect x="261.13" y="214.573" style="fill:#B3B3B3;" width="63.959" height="115.67"/>
	<rect x="244.194" y="214.573" style="fill:#999999;" width="63.959" height="115.67"/>
	<g>
		<rect x="67.541" y="263.862" style="fill:#D3674A;" width="146.573" height="164.365"/>
		<rect x="101.854" y="299.447" style="fill:#EF7954;" width="92.773" height="109.718"/>
		<rect x="214.114" y="263.862" style="fill:#EF7954;" width="146.573" height="164.365"/>
		<rect x="233.177" y="282.925" style="fill:#D3674A;" width="108.447" height="126.239"/>
		<rect x="233.177" y="282.925" style="fill:#EF7954;" width="92.773" height="126.239"/>
		<rect x="233.177" y="282.925" style="fill:#D3674A;" width="92.773" height="15.674"/>
		<rect x="279.019" y="298.599" style="fill:#F9ED82;" width="46.931" height="23.391"/>
	</g>
	<path style="fill:#999999;" d="M177.507,214.573h-63.959v99.177c0,9.109,7.384,16.493,16.493,16.493h64.401L177.507,214.573z"/>
	<path style="fill:#B3B3B3;" d="M194.443,214.573h-16.936v98.735c0,9.353,7.582,16.936,16.936,16.936h0V214.573z"/>
	<path style="fill:#999999;" d="M177.507,214.573h-63.959v-15.721c0-9.068,7.351-16.419,16.419-16.419h63.959L177.507,214.573z"/>
	<path style="fill:#B3B3B3;" d="M325.089,214.573H177.507v-15.721c0-9.068,7.351-16.419,16.419-16.419h118.62
		c6.927,0,12.542,5.615,12.542,12.542V214.573z"/>
	<circle style="fill:#E6E6E6;" cx="251.884" cy="198.821" r="27.7"/>
	<path style="fill:#808080;" d="M264.75,98.527h-25.731v100.899c0,7.106,5.76,12.866,12.866,12.866h0c7.106,0,10.422,0,10.422,0
		L264.75,98.527z"/>
	<path style="fill:#999999;" d="M275.172,98.527h-25.731v100.899c0,7.106,5.76,12.866,12.866,12.866h0
		c7.106,0,12.866-5.76,12.866-12.866V98.527z"/>
	<path style="fill:#808080;" d="M268.96,198.927c0,3.674-2.976,6.659-6.65,6.659c-1.343,0-2.586-0.39-3.629-1.08
		c-1.824-1.189-3.03-3.239-3.03-5.58c0-2.341,1.207-4.391,3.03-5.571c1.043-0.69,2.286-1.08,3.629-1.08
		C265.984,192.277,268.96,195.253,268.96,198.927z"/>
	<path style="fill:#666666;" d="M259.887,82.498h-69.254c-14.03,0-25.403,11.373-25.403,25.403v0
		c0,14.03,11.373,25.403,25.403,25.403h69.254V82.498z"/>
	<path style="fill:#666666;" d="M261.702,198.927c0,2.331-1.198,4.391-3.021,5.58c-1.824-1.189-3.03-3.239-3.03-5.58
		c0-2.341,1.207-4.391,3.03-5.571C260.504,194.536,261.702,196.595,261.702,198.927z"/>
	<path style="fill:#808080;" d="M310.848,107.901c0,2.05-0.245,4.047-0.708,5.961c-2.676,11.159-12.72,19.443-24.696,19.443h-46.27
		c-7.013,0-13.364-2.84-17.964-7.44s-7.44-10.951-7.44-17.964c0-14.026,11.368-25.403,25.403-25.403h46.27
		c7.013,0,13.364,2.84,17.964,7.439c3.702,3.702,6.26,8.537,7.122,13.945C310.739,105.188,310.848,106.531,310.848,107.901z"/>
	<rect x="227.427" y="0" style="fill:#738B93;" width="42.44" height="82.498"/>
	<rect x="206.207" y="0" style="fill:#496A72;" width="21.22" height="82.498"/>
	<path style="fill:#99B5C4;" d="M345.923,80.293c0,18.508-15.052,33.569-33.569,33.569h-2.214c0.463-1.914,0.708-3.91,0.708-5.961
		c0-1.37-0.109-2.713-0.318-4.019h1.824c13.01,0,23.589-10.579,23.589-23.589c0-13.01-10.579-23.589-23.589-23.589H210.741
		c-18.508,0-33.569-15.061-33.569-33.569V1.815h9.98v21.321c0,13.01,10.588,23.589,23.589,23.589h101.613
		C330.871,46.724,345.923,61.785,345.923,80.293z"/>
</g>
<g>
</g>
<g>
</g>
<g>
</g>
<g>
</g>
<g>
</g>
<g>
</g>
<g>
</g>
<g>
</g>
<g>
</g>
<g>
</g>
<g>
</g>
<g>
</g>
<g>
</g>
<g>
</g>
<g>
</g>
</svg>
