<?xml version="1.0" encoding="UTF-8" standalone="no"?>
<!-- Generator: Adobe Illustrator 18.0.0, SVG Export Plug-In . SVG Version: 6.00 Build 0)  -->

<svg
   version="1.1"
   id="Capa_1"
   x="0px"
   y="0px"
   viewBox="0 0 465.691 465.691"
   style="enable-background:new 0 0 465.691 465.691;"
   xml:space="preserve"
   sodipodi:docname="machine.svg"
   inkscape:version="1.1.2 (0a00cf5339, 2022-02-04, custom)"
   xmlns:inkscape="http://www.inkscape.org/namespaces/inkscape"
   xmlns:sodipodi="http://sodipodi.sourceforge.net/DTD/sodipodi-0.dtd"
   xmlns="http://www.w3.org/2000/svg"
   xmlns:svg="http://www.w3.org/2000/svg"><defs
   id="defs95">
	
	
	
	
	
	
	
		
	
	
	
	
	
	
	
	
	
	
	
	
	
	
</defs><sodipodi:namedview
   id="namedview93"
   pagecolor="#505050"
   bordercolor="#eeeeee"
   borderopacity="1"
   inkscape:pageshadow="0"
   inkscape:pageopacity="0"
   inkscape:pagecheckerboard="0"
   showgrid="false"
   inkscape:zoom="1.561121"
   inkscape:cx="232.52522"
   inkscape:cy="232.52522"
   inkscape:window-width="1920"
   inkscape:window-height="987"
   inkscape:window-x="0"
   inkscape:window-y="0"
   inkscape:window-maximized="1"
   inkscape:current-layer="Capa_1" />
<g
   id="g324"><path
     style="fill:#ef7954"
     d="M 316.612,126.25 H 80.197 V 29.552 h 205.767 c 16.926,0 30.648,13.721 30.648,30.648 z"
     id="path2" /><path
     style="fill:#cccccc"
     d="M 379.116,119.016 H 43.339 v 57.105 h 335.777 c 15.769,0 28.552,-12.783 28.552,-28.552 10e-4,-15.769 -12.783,-28.553 -28.552,-28.553 z"
     id="path4" /><path
     style="fill:#d3674a"
     d="m 358.33,146.998 c 0,15.772 -12.78,28.552 -28.552,28.552 H 95.647 c 15.772,0 28.552,-12.78 28.552,-28.552 0,-15.772 -12.78,-28.552 -28.552,-28.552 h 234.13 c 15.773,-0.001 28.553,12.779 28.553,28.552 z"
     id="path6" /><path
     style="fill:#cccccc"
     d="m 439.423,339.441 c 0,11.695 -4.408,22.374 -11.649,30.46 -8.36,9.342 -20.512,15.224 -34.035,15.224 H 93.367 v -91.368 h 300.372 c 25.229,0 45.684,20.455 45.684,45.684 z"
     id="path8" /><path
     style="fill:#ef7954"
     d="m 406.302,339.441 c 0,25.229 -20.455,45.684 -45.684,45.684 0,0 -190.731,-20.455 -190.731,-45.684 0,-25.229 -20.455,-45.684 -45.684,-45.684 h 236.415 c 25.229,0 45.684,20.455 45.684,45.684 z"
     id="path10" /><path
     style="fill:#b3b3b3"
     d="m 190.828,369.901 -20.941,-30.46 c 0,0.117 0,0.234 -0.001,0.351 -0.126,16.734 -14.019,30.109 -30.753,30.109 H 93.367 v 15.224 h 30.837 77.092 192.444 c 13.523,0 25.674,-5.882 34.035,-15.224 z"
     id="path12" /><path
     style="fill:#cccccc"
     d="m 391.74,234.094 c 0,19.827 -9.674,37.392 -24.555,48.242 -9.845,7.184 -21.985,11.421 -35.108,11.421 H 59.675 V 174.419 h 272.402 c 12.769,0 24.601,4.009 34.297,10.839 7.389,5.208 13.545,12.038 17.942,19.987 4.729,8.554 7.424,18.387 7.424,28.849 z"
     id="path16" /><path
     style="fill:#b3b3b3"
     d="m 367.185,282.336 c -9.845,7.184 -21.985,11.421 -35.108,11.421 H 59.675 v -11.421 z"
     id="path18" /><path
     style="fill:#b3b3b3"
     d="m 384.316,205.245 h -332.1 v -19.987 h 314.157 c 7.39,5.208 13.546,12.038 17.943,19.987 z"
     id="path20" /><path
     style="fill:#ef7954"
     d="m 345.222,234.094 c 0,19.827 -9.674,37.404 -24.567,48.242 -9.845,7.184 -21.985,11.421 -35.097,11.421 h -183.33 c 13.111,0 25.252,-4.237 35.097,-11.421 14.893,-10.839 24.567,-28.415 24.567,-48.242 0,-10.462 -2.695,-20.295 -7.424,-28.849 -4.397,-7.949 -10.553,-14.79 -17.954,-19.987 -9.708,-6.83 -21.529,-10.839 -34.286,-10.839 h 183.33 c 12.757,0 24.578,4.009 34.286,10.839 7.401,5.197 13.557,12.038 17.954,19.987 4.729,8.554 7.424,18.387 7.424,28.849 z"
     id="path22" /><rect
     x="43.339001"
     y="128.724"
     style="fill:#b3b3b3"
     width="155.89999"
     height="57.105"
     id="rect24" /><path
     style="fill:#999999"
     d="m 71.892,147.569 c 0,15.772 -12.78,28.552 -28.552,28.552 -15.772,0 -28.552,-12.78 -28.552,-28.552 0,-15.772 12.78,-28.552 28.552,-28.552 15.772,0 28.552,12.779 28.552,28.552 z"
     id="path26" /><path
     style="fill:#cccccc"
     d="M 437.138,128.153 H 101.361 v 57.105 h 335.777 c 15.769,0 28.552,-12.783 28.552,-28.552 10e-4,-15.77 -12.783,-28.553 -28.552,-28.553 z"
     id="path28" /><path
     style="fill:#999999"
     d="m 129.914,156.706 c 0,15.772 -12.78,28.552 -28.552,28.552 -15.772,0 -28.552,-12.78 -28.552,-28.552 0,-15.772 12.78,-28.552 28.552,-28.552 15.772,0 28.552,12.779 28.552,28.552 z"
     id="path30" /><path
     style="fill:#999999"
     d="m 119.338,234.094 c 0,32.95 -26.714,59.663 -59.663,59.663 -18.81,0 -35.588,-8.703 -46.518,-22.294 C 4.923,261.23 0,248.233 0,234.094 c 0,-14.151 4.923,-27.148 13.157,-37.381 10.93,-13.591 27.707,-22.294 46.518,-22.294 32.949,0 59.663,26.714 59.663,59.675 z"
     id="path32" /><g
     id="g42">
		<path
   style="fill:#808080"
   d="m 114.147,339.444 c 0,9.5 -6.39,17.53 -15.11,19.99 -1.8,0.52 -3.7,0.79 -5.67,0.79 -11.48,0 -20.78,-9.31 -20.78,-20.78 0,-11.48 9.3,-20.78 20.78,-20.78 1.97,0 3.87,0.27 5.67,0.79 8.72,2.461 15.11,10.481 15.11,19.99 z"
   id="path34" />
		<path
   style="fill:#808080"
   d="m 56.327,147.564 c 0,5.15 -2.99,9.59 -7.32,11.7 -1.72,0.83 -3.64,1.29 -5.67,1.29 -7.17,0 -12.98,-5.81 -12.98,-12.99 0,-7.17 5.81,-12.98 12.98,-12.98 2.03,0 3.95,0.46 5.67,1.3 4.33,2.1 7.32,6.541 7.32,11.68 z"
   id="path36" />
		<path
   style="fill:#808080"
   d="m 86.807,234.084 c 0,13.04 -9.2,23.94 -21.47,26.54 -1.83,0.4 -3.73,0.6 -5.67,0.6 -14.99,0 -27.14,-12.15 -27.14,-27.14 0,-14.99 12.15,-27.14 27.14,-27.14 1.94,0 3.84,0.2 5.67,0.6 12.27,2.6 21.47,13.5 21.47,26.54 z"
   id="path38" />
		<path
   style="fill:#808080"
   d="m 114.347,156.704 c 0,5.14 -2.98,9.58 -7.31,11.69 -1.72,0.83 -3.64,1.3 -5.68,1.3 -7.17,0 -12.98,-5.82 -12.98,-12.99 0,-7.17 5.81,-12.99 12.98,-12.99 2.04,0 3.96,0.47 5.68,1.3 4.33,2.11 7.31,6.55 7.31,11.69 z"
   id="path40" />
	</g><g
     id="g52">
		<path
   style="fill:#666666"
   d="m 114.147,339.444 c 0,9.5 -6.39,17.53 -15.11,19.99 -8.72,-2.46 -15.12,-10.48 -15.12,-19.99 0,-9.52 6.4,-17.53 15.12,-19.99 8.72,2.461 15.11,10.481 15.11,19.99 z"
   id="path44" />
		<path
   style="fill:#666666"
   d="m 56.327,147.564 c 0,5.15 -2.99,9.59 -7.32,11.7 -4.33,-2.11 -7.32,-6.55 -7.32,-11.7 0,-5.14 2.99,-9.58 7.32,-11.68 4.33,2.1 7.32,6.541 7.32,11.68 z"
   id="path46" />
		<path
   style="fill:#666666"
   d="m 86.807,234.084 c 0,13.04 -9.2,23.94 -21.47,26.54 -12.27,-2.6 -21.47,-13.5 -21.47,-26.54 0,-13.04 9.2,-23.94 21.47,-26.54 12.27,2.6 21.47,13.5 21.47,26.54 z"
   id="path48" />
		<path
   style="fill:#666666"
   d="m 114.347,156.704 c 0,5.14 -2.98,9.58 -7.31,11.69 -4.34,-2.1 -7.33,-6.55 -7.33,-11.69 0,-5.14 2.99,-9.59 7.33,-11.69 4.33,2.11 7.31,6.55 7.31,11.69 z"
   id="path50" />
	</g><path
     style="fill:#d3674a"
     d="m 337.799,205.245 h -183.33 c -4.397,-7.949 -10.553,-14.79 -17.954,-19.987 h 183.33 c 7.401,5.197 13.556,12.038 17.954,19.987 z"
     id="path54" /><path
     style="fill:#d3674a"
     d="m 320.656,282.336 c -9.845,7.184 -21.985,11.421 -35.097,11.421 h -183.33 c 13.111,0 25.252,-4.237 35.097,-11.421 z"
     id="path56" /><path
     style="fill:#ef7954"
     d="M 406.302,436.139 H 206.274 c -20.096,0 -36.387,-16.291 -36.387,-36.387 v -60.311 h 236.415 z"
     id="path58" /></g>
<g
   id="g62">
</g>
<g
   id="g64">
</g>
<g
   id="g66">
</g>
<g
   id="g68">
</g>
<g
   id="g70">
</g>
<g
   id="g72">
</g>
<g
   id="g74">
</g>
<g
   id="g76">
</g>
<g
   id="g78">
</g>
<g
   id="g80">
</g>
<g
   id="g82">
</g>
<g
   id="g84">
</g>
<g
   id="g86">
</g>
<g
   id="g88">
</g>
<g
   id="g90">
</g>
</svg>
