<?xml version="1.0" encoding="iso-8859-1"?>
<!-- Generator: Adobe Illustrator 18.0.0, SVG Export Plug-In . SVG Version: 6.00 Build 0)  -->
<!DOCTYPE svg PUBLIC "-//W3C//DTD SVG 1.1//EN" "http://www.w3.org/Graphics/SVG/1.1/DTD/svg11.dtd">
<svg version="1.1" id="Capa_1" xmlns="http://www.w3.org/2000/svg" xmlns:xlink="http://www.w3.org/1999/xlink" x="0px" y="0px"
	 viewBox="0 0 451.212 451.212" style="enable-background:new 0 0 451.212 451.212;" xml:space="preserve">
<g>
	<polygon style="fill:#999999;" points="442.549,273.71 357.66,273.71 357.56,337.478 381.815,315.288 442.549,315.288 	"/>
	<rect x="63.214" y="89.796" style="fill:#CCCCCC;" width="102.208" height="207.892"/>
	<rect x="165.428" y="297.705" style="fill:#CCCCCC;" width="159.24" height="81.943"/>
	<rect x="343.8" y="284.105" style="fill:#B3B3B3;" width="53.706" height="109.144"/>
	<g>
		<rect x="185.564" y="314.998" style="fill:#999999;" width="118.967" height="17.325"/>
		<rect x="185.564" y="345.029" style="fill:#999999;" width="118.967" height="17.325"/>
	</g>
	<g>
		<rect x="369.787" y="296.231" style="fill:#CCCCCC;" width="81.425" height="29.428"/>
		<rect x="369.787" y="351.693" style="fill:#CCCCCC;" width="81.425" height="29.428"/>
	</g>
	<rect x="324.668" y="325.394" style="fill:#638591;" width="19.132" height="26.565"/>
	<path style="fill:#638591;" d="M165.428,360.579h-33.372c-23.451,0-42.461-19.01-42.461-42.461v-20.434h75.833V360.579z"/>
	<circle style="fill:#99B5C4;" cx="123.439" cy="324.773" r="16.17"/>
	<circle style="fill:#999999;" cx="114.321" cy="199.088" r="35.701"/>
	<path style="fill:#99B5C4;" d="M131.109,199.087c0,9.28-7.51,16.79-16.79,16.79c-9.27,0-16.79-7.51-16.79-16.79
		c0-9.27,7.52-16.79,16.79-16.79C123.599,182.297,131.109,189.817,131.109,199.087z"/>
	<rect x="0" y="57.963" style="fill:#CCCCCC;" width="397.986" height="31.827"/>
	<rect x="63.214" y="116.869" style="fill:#999999;" width="102.214" height="26.565"/>
	<rect x="63.214" y="254.741" style="fill:#999999;" width="102.214" height="26.565"/>
	<rect x="63.214" y="89.796" style="fill:#B3B3B3;" width="102.208" height="6.93"/>
	<path style="fill:#638591;" d="M131.109,199.087c0,9.28-7.51,16.79-16.79,16.79v-33.58
		C123.599,182.297,131.109,189.817,131.109,199.087z"/>
</g>
<g>
</g>
<g>
</g>
<g>
</g>
<g>
</g>
<g>
</g>
<g>
</g>
<g>
</g>
<g>
</g>
<g>
</g>
<g>
</g>
<g>
</g>
<g>
</g>
<g>
</g>
<g>
</g>
<g>
</g>
</svg>
